<svg width="42" height="18" viewBox="0 0 42 18" fill="none" xmlns="http://www.w3.org/2000/svg">
<path d="M0 9C0 4.02944 4.02944 0 9 0H33C37.9706 0 42 4.02944 42 9C42 13.9706 37.9706 18 33 18H9C4.02944 18 0 13.9706 0 9Z" fill="#FF3D00" fill-opacity="0.1"/>
<path d="M15.7051 13H13.9473V9.34375H10.5195V13H8.76172V4.46875H10.5195V7.92578H13.9473V4.46875H15.7051V13ZM18.9219 13H17.2227V6.66016H18.9219V13ZM17.123 5.01953C17.123 4.76562 17.207 4.55664 17.375 4.39258C17.5469 4.22852 17.7793 4.14648 18.0723 4.14648C18.3613 4.14648 18.5918 4.22852 18.7637 4.39258C18.9355 4.55664 19.0215 4.76562 19.0215 5.01953C19.0215 5.27734 18.9336 5.48828 18.7578 5.65234C18.5859 5.81641 18.3574 5.89844 18.0723 5.89844C17.7871 5.89844 17.5566 5.81641 17.3809 5.65234C17.209 5.48828 17.123 5.27734 17.123 5.01953ZM20.0762 9.7832C20.0762 8.81055 20.3066 8.02734 20.7676 7.43359C21.2324 6.83984 21.8574 6.54297 22.6426 6.54297C23.3379 6.54297 23.8789 6.78125 24.2656 7.25781L24.3359 6.66016H25.8711V12.7891C25.8711 13.3438 25.7441 13.8262 25.4902 14.2363C25.2402 14.6465 24.8867 14.959 24.4297 15.1738C23.9727 15.3887 23.4375 15.4961 22.8242 15.4961C22.3594 15.4961 21.9062 15.4023 21.4648 15.2148C21.0234 15.0312 20.6895 14.793 20.4629 14.5L21.2129 13.4688C21.6348 13.9414 22.1465 14.1777 22.748 14.1777C23.1973 14.1777 23.5469 14.0566 23.7969 13.8145C24.0469 13.5762 24.1719 13.2363 24.1719 12.7949V12.4551C23.7812 12.8965 23.2676 13.1172 22.6309 13.1172C21.8691 13.1172 21.252 12.8203 20.7793 12.2266C20.3105 11.6289 20.0762 10.8379 20.0762 9.85352V9.7832ZM21.7695 9.90625C21.7695 10.4805 21.8848 10.9316 22.1152 11.2598C22.3457 11.584 22.6621 11.7461 23.0645 11.7461C23.5801 11.7461 23.9492 11.5527 24.1719 11.166V8.5C23.9453 8.11328 23.5801 7.91992 23.0762 7.91992C22.6699 7.91992 22.3496 8.08594 22.1152 8.41797C21.8848 8.75 21.7695 9.24609 21.7695 9.90625ZM28.8301 7.35156C29.2793 6.8125 29.8438 6.54297 30.5234 6.54297C31.8984 6.54297 32.5957 7.3418 32.6152 8.93945V13H30.9219V8.98633C30.9219 8.62305 30.8438 8.35547 30.6875 8.18359C30.5312 8.00781 30.2715 7.91992 29.9082 7.91992C29.4121 7.91992 29.0527 8.11133 28.8301 8.49414V13H27.1367V4H28.8301V7.35156Z" fill="#FF3D00"/>
</svg>
