<svg width="39" height="18" viewBox="0 0 39 18" fill="none" xmlns="http://www.w3.org/2000/svg">
<path d="M0 9C0 4.02944 4.02944 0 9 0H30C34.9706 0 39 4.02944 39 9C39 13.9706 34.9706 18 30 18H9C4.02944 18 0 13.9706 0 9Z" fill="#0EACC1" fill-opacity="0.1"/>
<path d="M10.5195 11.5879H14.252V13H8.76172V4.46875H10.5195V11.5879ZM14.8906 9.77148C14.8906 9.14258 15.0117 8.58203 15.2539 8.08984C15.4961 7.59766 15.8438 7.2168 16.2969 6.94727C16.7539 6.67773 17.2832 6.54297 17.8848 6.54297C18.7402 6.54297 19.4375 6.80469 19.9766 7.32812C20.5195 7.85156 20.8223 8.5625 20.8848 9.46094L20.8965 9.89453C20.8965 10.8672 20.625 11.6484 20.082 12.2383C19.5391 12.8242 18.8105 13.1172 17.8965 13.1172C16.9824 13.1172 16.252 12.8242 15.7051 12.2383C15.1621 11.6523 14.8906 10.8555 14.8906 9.84766V9.77148ZM16.584 9.89453C16.584 10.4961 16.6973 10.957 16.9238 11.2773C17.1504 11.5938 17.4746 11.752 17.8965 11.752C18.3066 11.752 18.627 11.5957 18.8574 11.2832C19.0879 10.9668 19.2031 10.4629 19.2031 9.77148C19.2031 9.18164 19.0879 8.72461 18.8574 8.40039C18.627 8.07617 18.3027 7.91406 17.8848 7.91406C17.4707 7.91406 17.1504 8.07617 16.9238 8.40039C16.6973 8.7207 16.584 9.21875 16.584 9.89453ZM27.4531 10.6973L28.2852 6.66016H29.9199L28.3027 13H26.8848L25.6836 9.00977L24.4824 13H23.0703L21.4531 6.66016H23.0879L23.9141 10.6914L25.0742 6.66016H26.2988L27.4531 10.6973Z" fill="#0EACC1"/>
</svg>
