<svg width="61" height="18" viewBox="0 0 61 18" fill="none" xmlns="http://www.w3.org/2000/svg">
<path d="M0 9C0 4.02944 4.02944 0 9 0H52C56.9706 0 61 4.02944 61 9C61 13.9706 56.9706 18 52 18H9C4.02944 18 0 13.9706 0 9Z" fill="#FFB800" fill-opacity="0.1"/>
<path d="M11.0586 4.46875L13.25 10.6562L15.4297 4.46875H17.7383V13H15.9746V10.668L16.1504 6.64258L13.8477 13H12.6406L10.3438 6.64844L10.5195 10.668V13H8.76172V4.46875H11.0586ZM22.0801 13.1172C21.1504 13.1172 20.3926 12.832 19.8066 12.2617C19.2246 11.6914 18.9336 10.9316 18.9336 9.98242V9.81836C18.9336 9.18164 19.0566 8.61328 19.3027 8.11328C19.5488 7.60938 19.8965 7.22266 20.3457 6.95312C20.7988 6.67969 21.3145 6.54297 21.8926 6.54297C22.7598 6.54297 23.4414 6.81641 23.9375 7.36328C24.4375 7.91016 24.6875 8.68555 24.6875 9.68945V10.3809H20.6504C20.7051 10.7949 20.8691 11.127 21.1426 11.377C21.4199 11.627 21.7695 11.752 22.1914 11.752C22.8438 11.752 23.3535 11.5156 23.7207 11.043L24.5527 11.9746C24.2988 12.334 23.9551 12.6152 23.5215 12.8184C23.0879 13.0176 22.6074 13.1172 22.0801 13.1172ZM21.8867 7.91406C21.5508 7.91406 21.2773 8.02734 21.0664 8.25391C20.8594 8.48047 20.7266 8.80469 20.668 9.22656H23.0234V9.0918C23.0156 8.7168 22.9141 8.42773 22.7188 8.22461C22.5234 8.01758 22.2461 7.91406 21.8867 7.91406ZM25.3906 9.7832C25.3906 8.79492 25.6113 8.00781 26.0527 7.42188C26.498 6.83594 27.1055 6.54297 27.875 6.54297C28.4922 6.54297 29.002 6.77344 29.4043 7.23438V4H31.1035V13H29.5742L29.4922 12.3262C29.0703 12.8535 28.5273 13.1172 27.8633 13.1172C27.1172 13.1172 26.5176 12.8242 26.0645 12.2383C25.6152 11.6484 25.3906 10.8301 25.3906 9.7832ZM27.084 9.90625C27.084 10.5 27.1875 10.9551 27.3945 11.2715C27.6016 11.5879 27.9023 11.7461 28.2969 11.7461C28.8203 11.7461 29.1895 11.5254 29.4043 11.084V8.58203C29.1934 8.14062 28.8281 7.91992 28.3086 7.91992C27.4922 7.91992 27.084 8.58203 27.084 9.90625ZM34.2031 13H32.5039V6.66016H34.2031V13ZM32.4043 5.01953C32.4043 4.76562 32.4883 4.55664 32.6562 4.39258C32.8281 4.22852 33.0605 4.14648 33.3535 4.14648C33.6426 4.14648 33.873 4.22852 34.0449 4.39258C34.2168 4.55664 34.3027 4.76562 34.3027 5.01953C34.3027 5.27734 34.2148 5.48828 34.0391 5.65234C33.8672 5.81641 33.6387 5.89844 33.3535 5.89844C33.0684 5.89844 32.8379 5.81641 32.6621 5.65234C32.4902 5.48828 32.4043 5.27734 32.4043 5.01953ZM39.4004 12.3555C38.9824 12.8633 38.4043 13.1172 37.666 13.1172C36.9863 13.1172 36.4668 12.9219 36.1074 12.5312C35.752 12.1406 35.5703 11.5684 35.5625 10.8145V6.66016H37.2559V10.7559C37.2559 11.416 37.5566 11.7461 38.1582 11.7461C38.7324 11.7461 39.127 11.5469 39.3418 11.1484V6.66016H41.041V13H39.4473L39.4004 12.3555ZM43.9062 6.66016L43.959 7.36914C44.4082 6.81836 45.0156 6.54297 45.7812 6.54297C46.5977 6.54297 47.1582 6.86523 47.4629 7.50977C47.9082 6.86523 48.543 6.54297 49.3672 6.54297C50.0547 6.54297 50.5664 6.74414 50.9023 7.14648C51.2383 7.54492 51.4062 8.14648 51.4062 8.95117V13H49.707V8.95703C49.707 8.59766 49.6367 8.33594 49.4961 8.17188C49.3555 8.00391 49.1074 7.91992 48.752 7.91992C48.2441 7.91992 47.8926 8.16211 47.6973 8.64648L47.7031 13H46.0098V8.96289C46.0098 8.5957 45.9375 8.33008 45.793 8.16602C45.6484 8.00195 45.4023 7.91992 45.0547 7.91992C44.5742 7.91992 44.2266 8.11914 44.0117 8.51758V13H42.3184V6.66016H43.9062Z" fill="#C18F0E"/>
</svg>
